<svg width="65" height="24" viewBox="0 0 65 24" fill="none" xmlns="http://www.w3.org/2000/svg">
<g clip-path="url(#clip0_0_850)">
<path d="M2.99994 5.97499C2.99994 5.40259 3.20265 4.93037 3.60805 4.55832C4.01345 4.18627 4.54049 4.00024 5.18913 4.00024C5.8262 4.00024 6.34163 4.1834 6.73546 4.54974C7.14086 4.92752 7.34357 5.41976 7.34357 6.0265C7.34357 6.576 7.14666 7.0339 6.75283 7.40024C6.34743 7.77802 5.81461 7.9669 5.15438 7.9669H5.137C4.49993 7.9669 3.9845 7.77802 3.59067 7.40024C3.19684 7.02246 2.99994 6.54737 2.99994 5.97499ZM3.22581 21.0002V9.52953H7.08295V21.0002H3.22581ZM9.22002 21.0002H13.0772V14.5952C13.0772 14.1945 13.1235 13.8854 13.2162 13.6679C13.3783 13.2787 13.6245 12.9495 13.9546 12.6805C14.2847 12.4115 14.6988 12.277 15.1968 12.277C16.4942 12.277 17.1428 13.1413 17.1428 14.8699V21.0002H20.9999V14.4235C20.9999 12.7292 20.5945 11.4442 19.7837 10.5684C18.9729 9.69266 17.9015 9.25478 16.5694 9.25478C15.0752 9.25478 13.9111 9.89013 13.0772 11.1608V11.1952H13.0598L13.0772 11.1608V9.52953H9.22002C9.24318 9.89585 9.25477 11.0349 9.25477 12.9467C9.25477 14.8585 9.24318 17.543 9.22002 21.0002Z" fill="#BCC2C3"/>
</g>
<path d="M62 5.80003C61.2483 6.12612 60.4534 6.34169 59.64 6.44003C60.4982 5.92735 61.1413 5.12081 61.45 4.17003C60.6436 4.65009 59.7608 4.98832 58.84 5.17003C58.2245 4.5026 57.405 4.05832 56.5098 3.90688C55.6147 3.75543 54.6945 3.90538 53.8938 4.33322C53.093 4.76105 52.4569 5.44256 52.0852 6.27086C51.7135 7.09917 51.6273 8.02742 51.84 8.91003C50.2094 8.82755 48.6144 8.40298 47.1587 7.66389C45.7029 6.9248 44.4188 5.88772 43.39 4.62003C43.0291 5.25019 42.8395 5.96385 42.84 6.69003C42.8387 7.36441 43.0042 8.02864 43.3218 8.62359C43.6393 9.21854 44.099 9.72574 44.66 10.1C44.008 10.0823 43.3699 9.90733 42.8 9.59003V9.64003C42.8049 10.5849 43.136 11.4991 43.7373 12.228C44.3386 12.9569 45.1733 13.4557 46.1 13.64C45.7433 13.7486 45.3729 13.8058 45 13.81C44.7419 13.807 44.4844 13.7836 44.23 13.74C44.4939 14.5528 45.0046 15.2632 45.6911 15.7722C46.3775 16.2812 47.2056 16.5636 48.06 16.58C46.6172 17.7153 44.8359 18.3349 43 18.34C42.6657 18.3411 42.3317 18.3211 42 18.28C43.8744 19.4903 46.0588 20.1327 48.29 20.13C49.8297 20.146 51.3571 19.855 52.7831 19.2741C54.2091 18.6932 55.505 17.8339 56.5952 16.7465C57.6854 15.6591 58.548 14.3654 59.1326 12.9409C59.7172 11.5164 60.012 9.98975 60 8.45003C60 8.28003 60 8.10003 60 7.92003C60.7847 7.33484 61.4615 6.61745 62 5.80003Z" fill="#BCC2C3"/>
<defs>
<clipPath id="clip0_0_850">
<rect width="18" height="17" fill="white" transform="translate(3 4)"/>
</clipPath>
</defs>
</svg>
